<svg width="58" height="42" viewBox="0 0 58 42" fill="none" xmlns="http://www.w3.org/2000/svg">
<path d="M26.5897 6.58004C36.2973 3.14317 46.9757 3.7989 56.18 8.379V37.9254C46.6971 33.4956 35.8294 32.9538 25.9222 36.4614L24.0403 37.1276C17.2418 39.5346 9.94325 40.1752 2.82933 38.9896L1 38.6847V8.94564L2.50053 9.19573C9.94859 10.4371 17.5899 9.76629 24.7078 7.2463L26.5897 6.58004Z" fill="#54BF58" stroke="black" stroke-width="2"/>
<path d="M30.5419 17.5689C30.7894 17.7148 31.0151 17.8915 31.2214 18.0987L32.0014 18.8824L32.703 18.0278L34.5505 15.7775L35.1065 15.1002L34.5081 14.4601C33.9414 13.8539 33.255 13.3643 32.4638 12.9846C31.8853 12.7013 31.2424 12.5036 30.5443 12.3817L30.4793 10.8761L30.4362 9.87707L29.4372 9.92017L26.8643 10.0311L25.8653 10.0742L25.9084 11.0733L25.9746 12.6089C24.7558 12.9453 23.7325 13.5159 22.9678 14.3656L23.6889 15.0144L22.9678 14.3656C22.019 15.4199 21.6082 16.7431 21.6729 18.2427C21.7321 19.6168 22.2018 20.8198 23.105 21.792L23.105 21.792L23.1113 21.7987C23.9859 22.7227 25.2111 23.2592 26.6704 23.4984L26.757 25.5067C26.6541 25.468 26.5522 25.4254 26.4511 25.379C26.0119 25.1702 25.5739 24.8624 25.1396 24.439L24.3683 23.6872L23.6757 24.5122L21.8047 26.7409L21.2618 27.3876L21.8085 28.0312C22.4701 28.8102 23.3037 29.4158 24.2872 29.8557L24.2969 29.86L24.3067 29.8641C25.0553 30.18 25.8705 30.3851 26.7458 30.4881L26.8078 31.9267L26.8509 32.9258L27.85 32.8827L30.4228 32.7717L31.4219 32.7286L31.3788 31.7296L31.3078 30.0839C31.7914 29.9242 32.2432 29.7271 32.6604 29.4896L32.6604 29.4897L32.6691 29.4846C33.3134 29.1092 33.8659 28.6557 34.3085 28.1168C34.763 27.581 35.0977 26.9744 35.3093 26.304C35.5361 25.6323 35.6302 24.928 35.5987 24.1991C35.54 22.8385 35.0697 21.6557 34.1542 20.723C33.2813 19.8199 32.0602 19.2869 30.6052 19.0363L30.5419 17.5689Z" fill="white" stroke="black" stroke-width="2"/>
</svg>
