<svg width="27" height="27" viewBox="0 0 27 27" fill="none" xmlns="http://www.w3.org/2000/svg">
<path fill-rule="evenodd" clip-rule="evenodd" d="M18.0373 1.23064C19.6781 -0.410215 22.3385 -0.410211 23.9793 1.23064L25.7694 3.02066C27.4102 4.66151 27.4102 7.32186 25.7694 8.96271L8.96271 25.7694C8.17474 26.5573 7.10603 27 5.99168 27H1.14591C0.513041 27 0 26.487 0 25.8541V21.0083C0 19.894 0.442674 18.8253 1.23064 18.0373L18.0373 1.23064ZM22.3588 2.8512C21.6129 2.10536 20.4037 2.10536 19.6579 2.8512L16.5174 5.99168L21.0083 10.4826L24.1488 7.34215C24.8946 6.59631 24.8946 5.38706 24.1488 4.64122L22.3588 2.8512ZM19.3878 12.1032L14.8968 7.61224L2.8512 19.6579C2.49303 20.016 2.29182 20.5018 2.29182 21.0083V24.7082H5.99168C6.49821 24.7082 6.98398 24.507 7.34215 24.1488L19.3878 12.1032Z" fill="black"/>
</svg>
