<svg width="752" height="726" viewBox="0 0 752 726" fill="none" xmlns="http://www.w3.org/2000/svg">
<path d="M412.557 437.396C410.448 365.049 465.269 377.763 492.944 393.163C583.747 432.887 565.164 482.135 542.97 537.516C514.018 609.76 453.704 584.128 346.352 570.068C260.47 558.82 363.307 522.7 363.307 522.7C363.307 522.7 414.666 509.743 412.557 437.396Z" fill="#14FF00"/>
<path d="M409.225 369.077L400.383 341.478C396.585 329.621 402.89 316.891 414.624 312.727V312.727" stroke="#14FF00" stroke-width="13" stroke-linecap="round"/>
<path d="M505.448 356.504L534.269 366.746C548.443 371.782 555.736 387.458 550.459 401.544V401.544" stroke="#14FF00" stroke-width="19" stroke-linecap="round"/>
<path d="M428 276.354C388.054 265.774 407.787 213.49 422.647 188.671C448.083 146.187 469.843 205.177 466.449 220.941C463.055 236.704 513.226 255.31 562.519 258.247C611.813 261.185 608.385 333.085 599.964 346.56C591.544 360.036 517.713 369.704 500.722 363.762C483.731 357.82 477.933 289.58 428 276.354Z" fill="#14FF00"/>
<path d="M238.782 298.384C272.674 263.681 345.957 472.152 287.28 479.383C213.935 488.421 206.992 320.445 238.782 298.384Z" fill="#14FF00"/>
<path d="M216.391 248.038L213.621 249.189L216.391 248.038ZM267.892 372.047L265.122 373.198L267.892 372.047ZM327.109 438.866L325.633 441.479L327.109 438.866ZM564.833 573.131L566.308 570.518L564.833 573.131ZM659.474 528.451C658.536 527.085 656.669 526.738 655.302 527.675L633.041 542.953C631.674 543.891 631.327 545.758 632.265 547.124C633.202 548.49 635.07 548.838 636.436 547.9L656.224 534.32L669.804 554.108C670.742 555.474 672.609 555.822 673.975 554.884C675.341 553.947 675.689 552.079 674.751 550.713L659.474 528.451ZM287.723 163.605C289.079 162.653 289.407 160.782 288.456 159.426L272.95 137.322C271.999 135.966 270.128 135.637 268.772 136.589C267.415 137.54 267.087 139.411 268.038 140.768L281.821 160.415L262.173 174.198C260.817 175.15 260.489 177.021 261.44 178.377C262.392 179.733 264.263 180.062 265.619 179.11L287.723 163.605ZM213.621 249.189L265.122 373.198L270.663 370.897L219.162 246.888L213.621 249.189ZM325.633 441.479L563.358 575.743L566.308 570.518L328.584 436.254L325.633 441.479ZM563.358 575.743C602.482 597.84 651.731 574.873 659.949 530.698L654.051 529.6C646.585 569.728 601.848 590.591 566.308 570.518L563.358 575.743ZM265.122 373.198C277.112 402.07 298.412 426.104 325.633 441.479L328.584 436.254C302.528 421.538 282.14 398.533 270.663 370.897L265.122 373.198ZM286.518 158.194C234.822 149.124 193.49 200.717 213.621 249.189L219.162 246.888C200.848 202.79 238.45 155.852 285.482 164.103L286.518 158.194Z" fill="black"/>
</svg>
