<svg width="30" height="30" viewBox="0 0 30 30" fill="none" xmlns="http://www.w3.org/2000/svg">
<path fill-rule="evenodd" clip-rule="evenodd" d="M20.0414 1.36738C21.8646 -0.455794 24.8205 -0.45579 26.6437 1.36738L28.6326 3.35629C30.4558 5.17946 30.4558 8.1354 28.6326 9.95857L9.95856 28.6326C9.08305 29.5081 7.89559 30 6.65743 30H1.27323C0.570045 30 0 29.43 0 28.7268V23.3426C0 22.1044 0.49186 20.917 1.36738 20.0414L20.0414 1.36738ZM24.8431 3.168C24.0144 2.33928 22.6708 2.33928 21.8421 3.168L18.3526 6.65743L23.3426 11.6474L26.832 8.15794C27.6607 7.32923 27.6607 5.98562 26.832 5.15691L24.8431 3.168ZM21.542 13.448L16.552 8.45805L3.168 21.8421C2.77004 22.24 2.54646 22.7798 2.54646 23.3426V27.4535H6.65743C7.22023 27.4535 7.75998 27.23 8.15794 26.832L21.542 13.448Z" fill="black"/>
</svg>
