<svg width="35" height="28" viewBox="0 0 35 28" fill="none" xmlns="http://www.w3.org/2000/svg">
<path fill-rule="evenodd" clip-rule="evenodd" d="M17.5 2.70968C15.2696 2.70968 13.4615 4.52942 13.4615 6.77419C13.4615 9.01896 15.2696 10.8387 17.5 10.8387C19.7304 10.8387 21.5385 9.01896 21.5385 6.77419C21.5385 4.52942 19.7304 2.70968 17.5 2.70968ZM10.7692 6.77419C10.7692 3.03291 13.7827 0 17.5 0C21.2173 0 24.2308 3.03291 24.2308 6.77419C24.2308 10.5155 21.2173 13.5484 17.5 13.5484C13.7827 13.5484 10.7692 10.5155 10.7692 6.77419Z" fill="black"/>
<path fill-rule="evenodd" clip-rule="evenodd" d="M14.8443 18.9677C12.0981 18.9677 9.87179 21.2084 9.87179 23.9724C9.87179 24.0262 9.87633 24.0697 9.88235 24.1022C9.88316 24.1065 9.88397 24.1106 9.88477 24.1143C10.6037 24.5148 12.6382 25.2903 17.5 25.2903C22.3617 25.2903 24.3963 24.5148 25.1152 24.1143C25.116 24.1106 25.1168 24.1065 25.1176 24.1022C25.1237 24.0697 25.1282 24.0262 25.1282 23.9724C25.1282 21.2084 22.9019 18.9677 20.1557 18.9677H14.8443ZM7.17949 23.9724C7.17949 19.7119 10.6112 16.2581 14.8443 16.2581H20.1557C24.3888 16.2581 27.8205 19.7119 27.8205 23.9724C27.8205 24.7325 27.5646 25.8097 26.5475 26.4113C25.3117 27.1423 22.7614 28 17.5 28C12.2386 28 9.68826 27.1423 8.45247 26.4113C7.43544 25.8097 7.17949 24.7325 7.17949 23.9724Z" fill="black"/>
<path fill-rule="evenodd" clip-rule="evenodd" d="M25.6235 2.8078C25.8175 2.08546 26.5566 1.65815 27.2743 1.85338C29.7309 2.52161 31.4103 4.94967 31.4103 7.67742C31.4103 10.5603 29.4445 13.1991 26.6349 13.5387C25.8968 13.628 25.2265 13.098 25.1378 12.3551C25.0491 11.6122 25.5757 10.9376 26.3138 10.8484C27.5427 10.6998 28.7179 9.4327 28.7179 7.67742C28.7179 6.0111 27.705 4.77743 26.5719 4.4692C25.8541 4.27397 25.4296 3.53014 25.6235 2.8078Z" fill="black"/>
<path fill-rule="evenodd" clip-rule="evenodd" d="M28.7428 17.3536C28.8852 16.6191 29.5921 16.1399 30.3218 16.2831C33.0389 16.8165 35 19.2123 35 21.9985V22.731C35 23.4263 34.7928 24.477 33.8281 25.0977C33.225 25.4856 32.3111 25.8853 30.9293 26.1666C30.2006 26.315 29.4904 25.8408 29.343 25.1074C29.1955 24.374 29.6668 23.6592 30.3955 23.5108C31.4203 23.3021 31.9992 23.0398 32.2976 22.864L32.298 22.8617C32.3036 22.829 32.3077 22.7853 32.3077 22.731V21.9985C32.3077 20.5088 31.2592 19.2278 29.8064 18.9427C29.0767 18.7995 28.6005 18.088 28.7428 17.3536Z" fill="black"/>
<path fill-rule="evenodd" clip-rule="evenodd" d="M9.37645 12.547C9.18248 13.2694 8.44341 13.6967 7.7257 13.5015C5.26911 12.8332 3.58974 10.4052 3.58974 7.67742C3.58974 4.79452 5.55555 2.15578 8.3651 1.81612C9.10325 1.72688 9.77352 2.25679 9.86219 2.99971C9.95085 3.74262 9.42434 4.41722 8.68619 4.50646C7.45727 4.65503 6.28205 5.92213 6.28205 7.67742C6.28205 9.34374 7.295 10.5774 8.42815 10.8856C9.14586 11.0809 9.57043 11.8247 9.37645 12.547Z" fill="black"/>
<path fill-rule="evenodd" clip-rule="evenodd" d="M6.25716 17.3536C6.11485 16.6191 5.40793 16.1399 4.67822 16.2831C1.96105 16.8165 0 19.2123 0 21.9985V22.731C0 23.4263 0.207169 24.477 1.17194 25.0977C1.77499 25.4856 2.68893 25.8853 4.07067 26.1666C4.79936 26.315 5.5096 25.8408 5.65703 25.1074C5.80446 24.374 5.33324 23.6592 4.60455 23.5108C3.57972 23.3021 3.00075 23.0398 2.70241 22.864L2.702 22.8617C2.69644 22.829 2.69231 22.7853 2.69231 22.731V21.9985C2.69231 20.5088 3.74081 19.2278 5.19358 18.9427C5.92329 18.7995 6.39947 18.088 6.25716 17.3536Z" fill="black"/>
</svg>
