<svg width="27" height="34" viewBox="0 0 27 34" fill="none" xmlns="http://www.w3.org/2000/svg">
<path fill-rule="evenodd" clip-rule="evenodd" d="M3.14922 10.4619C3.87054 10.4795 4.44104 11.0791 4.42346 11.8011L3.1174 11.7692L1.81133 11.7374C1.82891 11.0154 2.4279 10.4443 3.14922 10.4619ZM3.1174 11.7692C1.81134 11.7374 1.81133 11.7374 1.81133 11.7374L1.80959 11.8117L1.80488 12.023C1.80091 12.2067 1.79543 12.4733 1.78933 12.8058C1.77715 13.4707 1.76252 14.3998 1.75277 15.4572C1.73333 17.5662 1.73302 20.2071 1.81189 22.2805C1.89816 24.5484 2.13041 27.4837 2.32206 29.6696C2.53848 32.1381 4.60987 34 7.06552 34H19.9345C22.3901 34 24.4615 32.1381 24.678 29.6696C24.8696 27.4837 25.1018 24.5484 25.1881 22.2805C25.267 20.2071 25.2667 17.5662 25.2472 15.4572C25.2375 14.3998 25.2229 13.4707 25.2107 12.8058C25.2046 12.4733 25.1991 12.2067 25.1951 12.023L25.1904 11.8117L25.1887 11.7387C25.1711 11.0167 24.5721 10.4443 23.8508 10.4619C23.1295 10.4795 22.559 11.0791 22.5765 11.8011L23.4088 11.7808C22.5765 11.8011 22.5765 11.8011 22.5765 11.8011L22.5782 11.872L22.5828 12.0796C22.5867 12.2607 22.5922 12.5244 22.5982 12.8538C22.6103 13.5127 22.6248 14.4336 22.6344 15.4813C22.6538 17.5826 22.6535 20.1724 22.5771 22.181C22.4934 24.38 22.2662 27.2608 22.0751 29.441C21.9788 30.539 21.0556 31.3846 19.9345 31.3846H7.06552C5.94436 31.3846 5.02122 30.539 4.92496 29.441C4.73381 27.2608 4.50655 24.38 4.4229 22.181C4.3465 20.1724 4.34619 17.5826 4.36557 15.4813C4.37523 14.4336 4.38972 13.5127 4.4018 12.8538C4.40783 12.5244 4.41326 12.2607 4.41718 12.0796L4.4218 11.872L4.42346 11.8011L3.1174 11.7692Z" fill="black"/>
<path fill-rule="evenodd" clip-rule="evenodd" d="M0 6.53846C0 5.81624 0.584918 5.23077 1.30645 5.23077H25.6935C26.4151 5.23077 27 5.81624 27 6.53846C27 7.26068 26.4151 7.84615 25.6935 7.84615H1.30645C0.584918 7.84615 0 7.26068 0 6.53846Z" fill="black"/>
<path fill-rule="evenodd" clip-rule="evenodd" d="M7.18292 2.53846C8.01545 0.975988 9.64055 0 11.4097 0H15.5903C17.3594 0 18.9845 0.975987 19.8171 2.53846L21.6205 5.92308C21.96 6.56033 21.7192 7.35244 21.0825 7.69231C20.4459 8.03218 19.6545 7.7911 19.315 7.15385L17.5116 3.76923C17.1332 3.05901 16.3945 2.61538 15.5903 2.61538H11.4097C10.6055 2.61538 9.86685 3.05901 9.48843 3.76923L7.68501 7.15385C7.34547 7.7911 6.5541 8.03218 5.91746 7.69231C5.28081 7.35244 5.03996 6.56033 5.37951 5.92308L7.18292 2.53846Z" fill="black"/>
</svg>
