<svg width="38" height="39" viewBox="0 0 38 39" fill="none" xmlns="http://www.w3.org/2000/svg">
<path fill-rule="evenodd" clip-rule="evenodd" d="M25.2836 36.6779C25.0937 37.9722 23.916 39 22.5105 39H15.4826C14.077 39 12.8994 37.9722 12.7284 36.5827L12.2156 32.9854C11.7028 32.7189 11.2089 32.4334 10.715 32.1098L7.29609 33.4802C5.96649 33.9751 4.50393 33.4231 3.85813 32.243L0.382185 26.2094C-0.282614 24.9531 0.00230002 23.4685 1.06598 22.631L3.9721 20.366C3.9531 20.0805 3.93411 19.795 3.93411 19.4905C3.93411 19.205 3.9531 18.9004 3.9721 18.6149L1.08497 16.3499C-0.0356884 15.4934 -0.320602 13.9517 0.382185 12.7716L3.89612 6.69985C4.54192 5.51977 6.00448 4.98682 7.29609 5.50073L10.734 6.89019C11.2279 6.56662 11.7217 6.28111 12.2156 6.01464L12.7284 2.37921C12.8994 1.04685 14.077 0 15.4636 0H22.4915C23.897 0 25.0747 1.02782 25.2456 2.41728L25.7585 6.01464C26.2713 6.28111 26.7652 6.56662 27.259 6.89019L30.678 5.51977C32.0266 5.02489 33.4891 5.57687 34.1349 6.75695L37.6299 12.8097C38.3137 14.0659 38.0098 15.5505 36.9461 16.388L34.059 18.653C34.078 18.9385 34.097 19.224 34.097 19.5286C34.097 19.8331 34.078 20.1186 34.059 20.4041L36.9461 22.6691C38.0098 23.5256 38.3137 25.0103 37.6489 26.2094L34.1159 32.3382C33.4701 33.5183 32.0076 34.0512 30.697 33.5373L27.278 32.1669C26.7842 32.4905 26.2903 32.776 25.7965 33.0425L25.2836 36.6779ZM16.3753 35.1933H21.6177L22.3205 30.3397L23.3272 29.9209C24.163 29.5783 24.9987 29.0835 25.8724 28.4363L26.7272 27.7892L31.2478 29.6164L33.869 25.0483L30.0132 22.041L30.1462 20.9751L30.1521 20.9239C30.207 20.4473 30.2601 19.9866 30.2601 19.4905C30.2601 18.9766 30.2031 18.4817 30.1462 18.0059L30.0132 16.94L33.869 13.9326L31.2288 9.36457L26.6892 11.1918L25.8345 10.5256C25.0367 9.91654 24.182 9.42167 23.3082 9.06003L22.3205 8.64129L21.6177 3.7877H16.3753L15.6725 8.64129L14.6658 9.041C13.8301 9.40264 12.9944 9.87848 12.1206 10.5447L11.2659 11.1728L6.74525 9.36457L4.10505 13.9136L7.96088 16.9209L7.82793 17.9868C7.77094 18.4817 7.71396 18.9956 7.71396 19.4905C7.71396 19.9854 7.75195 20.4993 7.82793 20.9751L7.96088 22.041L4.10505 25.0483L6.72626 29.6164L11.2659 27.7892L12.1206 28.4553C12.9374 29.0835 13.7541 29.5593 14.6469 29.9209L15.6536 30.3397L16.3753 35.1933ZM25.6445 19.4905C25.6445 23.1697 22.6681 26.1523 18.9965 26.1523C15.325 26.1523 12.3486 23.1697 12.3486 19.4905C12.3486 15.8113 15.325 12.8287 18.9965 12.8287C22.6681 12.8287 25.6445 15.8113 25.6445 19.4905Z" fill="white"/>
</svg>
