<svg width="28" height="28" viewBox="0 0 28 28" fill="none" xmlns="http://www.w3.org/2000/svg">
<path fill-rule="evenodd" clip-rule="evenodd" d="M14 2.15385C7.45755 2.15385 2.15385 7.45755 2.15385 14C2.15385 20.5424 7.45755 25.8462 14 25.8462C20.5424 25.8462 25.8462 20.5424 25.8462 14C25.8462 7.45755 20.5424 2.15385 14 2.15385ZM0 14C0 6.26801 6.26801 0 14 0C21.732 0 28 6.26801 28 14C28 21.732 21.732 28 14 28C6.26801 28 0 21.732 0 14Z" fill="black"/>
<path fill-rule="evenodd" clip-rule="evenodd" d="M8.83077 17.6615C9.18763 17.1857 9.86265 17.0893 10.3385 17.4462C10.9863 17.932 11.5172 18.2241 12.0537 18.403C12.5902 18.5818 13.1903 18.6667 14 18.6667C14.8097 18.6667 15.4098 18.5818 15.9463 18.403C16.4828 18.2241 17.0137 17.932 17.6615 17.4462C18.1374 17.0893 18.8124 17.1857 19.1692 17.6615C19.5261 18.1374 19.4297 18.8124 18.9538 19.1692C18.183 19.7473 17.4468 20.1732 16.6274 20.4463C15.808 20.7194 14.9635 20.8205 14 20.8205C13.0365 20.8205 12.192 20.7194 11.3726 20.4463C10.5532 20.1732 9.81697 19.7473 9.04615 19.1692C8.57034 18.8124 8.47391 18.1374 8.83077 17.6615Z" fill="black"/>
<path d="M11.1282 9.69231C11.1282 10.4853 10.4853 11.1282 9.69231 11.1282C8.89928 11.1282 8.25641 10.4853 8.25641 9.69231C8.25641 8.89928 8.89928 8.25641 9.69231 8.25641C10.4853 8.25641 11.1282 8.89928 11.1282 9.69231Z" fill="black"/>
<path d="M19.7436 9.69231C19.7436 10.4853 19.1007 11.1282 18.3077 11.1282C17.5147 11.1282 16.8718 10.4853 16.8718 9.69231C16.8718 8.89928 17.5147 8.25641 18.3077 8.25641C19.1007 8.25641 19.7436 8.89928 19.7436 9.69231Z" fill="black"/>
</svg>
