<svg width="39" height="31" viewBox="0 0 39 31" fill="none" xmlns="http://www.w3.org/2000/svg">
<path fill-rule="evenodd" clip-rule="evenodd" d="M19.5 3C17.0147 3 15 5.01472 15 7.5C15 9.98528 17.0147 12 19.5 12C21.9853 12 24 9.98528 24 7.5C24 5.01472 21.9853 3 19.5 3ZM12 7.5C12 3.35786 15.3579 0 19.5 0C23.6421 0 27 3.35786 27 7.5C27 11.6421 23.6421 15 19.5 15C15.3579 15 12 11.6421 12 7.5Z" fill="black"/>
<path fill-rule="evenodd" clip-rule="evenodd" d="M16.5408 21C13.4807 21 11 23.4807 11 26.5408C11 26.6004 11.005 26.6486 11.0118 26.6846C11.0127 26.6894 11.0136 26.6939 11.0145 26.698C11.8156 27.1414 14.0826 28 19.5 28C24.9174 28 27.1844 27.1414 27.9855 26.698C27.9864 26.6939 27.9873 26.6894 27.9882 26.6846C27.995 26.6486 28 26.6004 28 26.5408C28 23.4807 25.5193 21 22.4592 21H16.5408ZM8 26.5408C8 21.8239 11.8239 18 16.5408 18H22.4592C27.1761 18 31 21.8239 31 26.5408C31 27.3825 30.7148 28.5751 29.5815 29.2411C28.2045 30.0504 25.3627 31 19.5 31C13.6373 31 10.7955 30.0504 9.41846 29.2411C8.2852 28.5751 8 27.3825 8 26.5408Z" fill="black"/>
<path fill-rule="evenodd" clip-rule="evenodd" d="M28.552 3.10864C28.7681 2.3089 29.5916 1.83581 30.3914 2.05195C33.1287 2.79178 35 5.47999 35 8.5C35 11.6918 32.8095 14.6132 29.6789 14.9893C28.8564 15.0881 28.1095 14.5014 28.0107 13.6789C27.9119 12.8564 28.4986 12.1095 29.3211 12.0107C30.6905 11.8462 32 10.4434 32 8.5C32 6.65514 30.8713 5.2893 29.6086 4.94804C28.8089 4.7319 28.3358 3.90837 28.552 3.10864Z" fill="black"/>
<path fill-rule="evenodd" clip-rule="evenodd" d="M32.0277 19.2129C32.1863 18.3998 32.974 17.8692 33.7871 18.0277C36.8148 18.6182 39 21.2707 39 24.3555V25.1664C39 25.9362 38.7692 27.0995 37.6941 27.7867C37.0222 28.2162 36.0038 28.6587 34.4641 28.9702C33.6521 29.1345 32.8607 28.6094 32.6964 27.7974C32.5322 26.9855 33.0572 26.1941 33.8692 26.0298C35.0112 25.7988 35.6563 25.5083 35.9887 25.3137L35.9892 25.3111C35.9954 25.2749 36 25.2265 36 25.1664V24.3555C36 22.7062 34.8317 21.288 33.2129 20.9723C32.3998 20.8137 31.8692 20.026 32.0277 19.2129Z" fill="black"/>
<path fill-rule="evenodd" clip-rule="evenodd" d="M10.448 13.8914C10.2319 14.6911 9.40837 15.1642 8.60864 14.948C5.87129 14.2082 4 11.52 4 8.5C4 5.30822 6.19047 2.38676 9.32111 2.01071C10.1436 1.91191 10.8905 2.49859 10.9893 3.32111C11.0881 4.14362 10.5014 4.89049 9.67889 4.98929C8.30953 5.15378 7 6.55665 7 8.5C7 10.3449 8.12871 11.7107 9.39136 12.052C10.1911 12.2681 10.6642 13.0916 10.448 13.8914Z" fill="black"/>
<path fill-rule="evenodd" clip-rule="evenodd" d="M6.97226 19.2129C6.81368 18.3998 6.02598 17.8692 5.21287 18.0277C2.18517 18.6182 0 21.2707 0 24.3555V25.1664C0 25.9362 0.230846 27.0995 1.30587 27.7867C1.97784 28.2162 2.99624 28.6587 4.53588 28.9702C5.34786 29.1345 6.13927 28.6094 6.30354 27.7974C6.46782 26.9855 5.94276 26.1941 5.13078 26.0298C3.98883 25.7988 3.3437 25.5083 3.01125 25.3137L3.0108 25.3111C3.0046 25.2749 3 25.2265 3 25.1664V24.3555C3 22.7062 4.16833 21.288 5.78713 20.9723C6.60024 20.8137 7.13084 20.026 6.97226 19.2129Z" fill="black"/>
</svg>
