<svg width="472" height="321" viewBox="0 0 472 321" fill="none" xmlns="http://www.w3.org/2000/svg">
<path d="M230.648 15.6104C256.629 6.41233 285.239 8.30078 309.775 20.8145V101.228C284.954 88.8777 256.159 87.1098 229.981 96.3778L225.084 98.1113C207.14 104.464 187.875 106.155 169.098 103.026L163 102.01V21.3845L168.769 22.346C187.881 25.5312 207.488 23.8101 225.752 17.3439L230.648 15.6104Z" fill="#54BF58" stroke="black" stroke-width="2"/>
<path d="M239.757 43.2631C241.554 43.7696 243.084 44.6696 244.369 45.9605L245.149 46.7441L245.851 45.8895L250.658 40.0345L251.214 39.3573L250.615 38.7171C249.289 37.2986 247.668 36.1369 245.768 35.2256C244.088 34.4019 242.136 33.8695 239.929 33.6091L239.703 28.3673L239.66 27.3683L238.661 27.4114L231.967 27.7001L230.968 27.7432L231.011 28.7423L231.24 34.0494C227.722 34.8066 224.928 36.2512 222.95 38.4489C220.803 40.8347 219.837 43.8479 219.99 47.396C220.13 50.6259 221.222 53.3838 223.29 55.6095L223.29 55.6095L223.296 55.6163C225.395 57.8341 228.48 59.1489 232.406 59.6709L232.409 59.6713L232.936 59.7397L233.314 68.4986C232.223 68.2925 231.167 67.9546 230.145 67.4844C228.818 66.8551 227.533 65.944 226.292 64.7343L225.521 63.9825L224.828 64.8075L219.96 70.6063L219.417 71.253L219.964 71.8966C221.516 73.7238 223.484 75.1618 225.846 76.2183L225.856 76.2226L225.866 76.2267C228.028 77.1389 230.453 77.6784 233.129 77.8601L233.351 83.0002L233.394 83.9992L234.393 83.9561L241.087 83.6674L242.086 83.6243L242.043 82.6253L241.805 77.0979C243.423 76.6614 244.885 76.0763 246.186 75.3361L246.186 75.3361L246.194 75.3311C247.734 74.4342 249.02 73.3696 250.037 72.1297C251.089 70.8921 251.86 69.4939 252.347 67.9423C252.874 66.3884 253.097 64.7489 253.023 63.032C252.885 59.8398 251.795 57.1504 249.717 55.0364C247.623 52.8665 244.546 51.5546 240.627 50.9933L240.627 50.9932L240.614 50.9915L240.088 50.9232L239.757 43.2631ZM242.105 66.8864L242.101 66.8914C241.815 67.297 241.4 67.6569 240.822 67.951L240.521 60.9845C241.207 61.2193 241.696 61.5004 242.025 61.8021C242.455 62.1963 242.778 62.8829 242.829 64.0599C242.881 65.2527 242.616 66.1714 242.105 66.8864ZM230.997 48.8021C230.594 48.3966 230.302 47.7344 230.256 46.6591C230.209 45.5808 230.442 44.8246 230.85 44.2895C231.139 43.9415 231.582 43.6245 232.23 43.3717L232.498 49.593C231.821 49.3537 231.331 49.0835 230.997 48.8021Z" fill="white" stroke="black" stroke-width="2"/>
<path d="M235.293 198.707C235.683 199.098 236.317 199.098 236.707 198.707L243.071 192.343C243.462 191.953 243.462 191.319 243.071 190.929C242.681 190.538 242.047 190.538 241.657 190.929L236 196.586L230.343 190.929C229.953 190.538 229.319 190.538 228.929 190.929C228.538 191.319 228.538 191.953 228.929 192.343L235.293 198.707ZM235 121.5V198H237V121.5H235Z" fill="black"/>
<path d="M404.899 202.299C405.34 202.631 405.967 202.543 406.299 202.101L411.71 194.909C412.042 194.468 411.953 193.841 411.512 193.509C411.071 193.177 410.444 193.266 410.112 193.707L405.302 200.1L398.909 195.29C398.468 194.958 397.841 195.047 397.509 195.488C397.177 195.929 397.266 196.556 397.707 196.888L404.899 202.299ZM235.487 123C297.214 123.82 337.362 128.494 363.141 140.458C375.995 146.424 385.251 154.193 391.832 164.193C398.422 174.206 402.373 186.52 404.51 201.64L406.49 201.36C404.328 186.061 400.308 173.434 393.503 163.093C386.689 152.74 377.126 144.744 363.983 138.644C337.769 126.478 297.216 121.82 235.513 121L235.487 123Z" fill="black"/>
<path d="M66.6012 202.299C66.1599 202.631 65.5329 202.543 65.2009 202.101L59.7901 194.909C59.4581 194.468 59.5467 193.841 59.988 193.509C60.4293 193.177 61.0563 193.266 61.3883 193.707L66.1979 200.1L72.5907 195.29C73.032 194.958 73.659 195.047 73.991 195.488C74.323 195.929 74.2344 196.556 73.7931 196.888L66.6012 202.299ZM236.013 123C174.286 123.82 134.138 128.494 108.359 140.458C95.505 146.424 86.2492 154.193 79.6677 164.193C73.078 174.206 69.127 186.52 66.9902 201.64L65.0098 201.36C67.1719 186.061 71.1916 173.434 77.997 163.093C84.8106 152.74 94.3744 144.744 107.517 138.644C133.731 126.478 174.284 121.82 235.987 121L236.013 123Z" fill="black"/>
<path d="M34.4166 266.917V242.333C34.4166 228.756 45.423 217.75 59 217.75C72.5769 217.75 83.5833 228.756 83.5833 242.333V266.917H34.4166Z" fill="#54BF58" stroke="black" stroke-width="2.67087"/>
<path d="M59 281.667C42.095 281.667 26.1862 285.932 12.2916 293.447V311.167H105.708V293.447C91.8138 285.932 75.905 281.667 59 281.667Z" fill="#54BF58" stroke="black" stroke-width="2.67087"/>
<path d="M211.417 266.917V242.333C211.417 228.756 222.423 217.75 236 217.75C249.577 217.75 260.583 228.756 260.583 242.333V266.917H211.417Z" fill="#54BF58" stroke="black" stroke-width="2.67087"/>
<path d="M236 281.667C219.095 281.667 203.186 285.932 189.292 293.447V311.167H282.708V293.447C268.814 285.932 252.905 281.667 236 281.667Z" fill="#54BF58" stroke="black" stroke-width="2.67087"/>
<path d="M388.417 266.917V242.333C388.417 228.756 399.423 217.75 413 217.75C426.577 217.75 437.583 228.756 437.583 242.333V266.917H388.417Z" fill="#54BF58" stroke="black" stroke-width="2.67087"/>
<path d="M413 281.667C396.095 281.667 380.186 285.932 366.292 293.447V311.167H459.708V293.447C445.814 285.932 429.905 281.667 413 281.667Z" fill="#54BF58" stroke="black" stroke-width="2.67087"/>
</svg>
